<mxfile host="app.diagrams.net" modified="2023-05-17T13:39:57.702Z" agent="Mozilla/5.0 (Windows NT 10.0; Win64; x64) AppleWebKit/537.36 (KHTML, like Gecko) Chrome/113.0.0.0 Safari/537.36" etag="mI37EWleM-pBalIekdGx" version="21.3.2" type="github">
  <diagram id="C5RBs43oDa-KdzZeNtuy" name="Page-1">
    <mxGraphModel dx="1050" dy="527" grid="1" gridSize="10" guides="1" tooltips="1" connect="1" arrows="1" fold="1" page="1" pageScale="1" pageWidth="100" pageHeight="180" math="0" shadow="0">
      <root>
        <mxCell id="WIyWlLk6GJQsqaUBKTNV-0" />
        <mxCell id="WIyWlLk6GJQsqaUBKTNV-1" parent="WIyWlLk6GJQsqaUBKTNV-0" />
        <mxCell id="kLbaEMiht5vseZuIg8E6-37" value="" style="edgeStyle=orthogonalEdgeStyle;rounded=0;orthogonalLoop=1;jettySize=auto;html=1;" parent="WIyWlLk6GJQsqaUBKTNV-1" source="kLbaEMiht5vseZuIg8E6-34" target="kLbaEMiht5vseZuIg8E6-35" edge="1">
          <mxGeometry relative="1" as="geometry" />
        </mxCell>
        <mxCell id="kLbaEMiht5vseZuIg8E6-34" value="start" style="ellipse;whiteSpace=wrap;html=1;" parent="WIyWlLk6GJQsqaUBKTNV-1" vertex="1">
          <mxGeometry x="125" y="10" width="60" height="40" as="geometry" />
        </mxCell>
        <mxCell id="kLbaEMiht5vseZuIg8E6-39" value="" style="edgeStyle=orthogonalEdgeStyle;rounded=0;orthogonalLoop=1;jettySize=auto;html=1;" parent="WIyWlLk6GJQsqaUBKTNV-1" source="kLbaEMiht5vseZuIg8E6-35" target="kLbaEMiht5vseZuIg8E6-38" edge="1">
          <mxGeometry relative="1" as="geometry" />
        </mxCell>
        <mxCell id="kLbaEMiht5vseZuIg8E6-35" value="initial balance =1500&lt;br&gt;input: withdraw amount" style="shape=parallelogram;perimeter=parallelogramPerimeter;whiteSpace=wrap;html=1;fixedSize=1;" parent="WIyWlLk6GJQsqaUBKTNV-1" vertex="1">
          <mxGeometry x="77.5" y="80" width="155" height="60" as="geometry" />
        </mxCell>
        <mxCell id="kLbaEMiht5vseZuIg8E6-38" value="amount &amp;lt;= currentBalance&lt;br&gt;&amp;nbsp;&amp;amp;&amp;amp; currentBalance - amount &amp;gt;= 500" style="rhombus;whiteSpace=wrap;html=1;" parent="WIyWlLk6GJQsqaUBKTNV-1" vertex="1">
          <mxGeometry x="30" y="160" width="250" height="90" as="geometry" />
        </mxCell>
        <mxCell id="kLbaEMiht5vseZuIg8E6-43" value="" style="edgeStyle=none;orthogonalLoop=1;jettySize=auto;html=1;rounded=0;" parent="WIyWlLk6GJQsqaUBKTNV-1" edge="1">
          <mxGeometry width="80" relative="1" as="geometry">
            <mxPoint x="295" y="204.41" as="sourcePoint" />
            <mxPoint x="325" y="204" as="targetPoint" />
            <Array as="points" />
          </mxGeometry>
        </mxCell>
        <mxCell id="kLbaEMiht5vseZuIg8E6-44" value="Yes ?" style="text;strokeColor=none;align=center;fillColor=none;html=1;verticalAlign=middle;whiteSpace=wrap;rounded=0;" parent="WIyWlLk6GJQsqaUBKTNV-1" vertex="1">
          <mxGeometry x="105" y="260" width="60" height="30" as="geometry" />
        </mxCell>
        <mxCell id="kLbaEMiht5vseZuIg8E6-45" value="No ?" style="text;strokeColor=none;align=center;fillColor=none;html=1;verticalAlign=middle;whiteSpace=wrap;rounded=0;" parent="WIyWlLk6GJQsqaUBKTNV-1" vertex="1">
          <mxGeometry x="275" y="180" width="60" height="30" as="geometry" />
        </mxCell>
        <mxCell id="kLbaEMiht5vseZuIg8E6-46" value="" style="edgeStyle=none;orthogonalLoop=1;jettySize=auto;html=1;rounded=0;" parent="WIyWlLk6GJQsqaUBKTNV-1" edge="1">
          <mxGeometry width="80" relative="1" as="geometry">
            <mxPoint x="154.41" y="260" as="sourcePoint" />
            <mxPoint x="154" y="300" as="targetPoint" />
            <Array as="points" />
          </mxGeometry>
        </mxCell>
        <mxCell id="kLbaEMiht5vseZuIg8E6-51" value="amount% 500 == 0 ?" style="rhombus;whiteSpace=wrap;html=1;" parent="WIyWlLk6GJQsqaUBKTNV-1" vertex="1">
          <mxGeometry x="82.5" y="300" width="145" height="50" as="geometry" />
        </mxCell>
        <mxCell id="kLbaEMiht5vseZuIg8E6-52" value="" style="edgeStyle=none;orthogonalLoop=1;jettySize=auto;html=1;rounded=0;" parent="WIyWlLk6GJQsqaUBKTNV-1" edge="1">
          <mxGeometry width="80" relative="1" as="geometry">
            <mxPoint x="235" y="324.85999999999996" as="sourcePoint" />
            <mxPoint x="265" y="325" as="targetPoint" />
            <Array as="points" />
          </mxGeometry>
        </mxCell>
        <mxCell id="kLbaEMiht5vseZuIg8E6-53" value="Yes ?" style="text;strokeColor=none;align=center;fillColor=none;html=1;verticalAlign=middle;whiteSpace=wrap;rounded=0;" parent="WIyWlLk6GJQsqaUBKTNV-1" vertex="1">
          <mxGeometry x="105" y="350" width="60" height="30" as="geometry" />
        </mxCell>
        <mxCell id="kLbaEMiht5vseZuIg8E6-54" value="No ?" style="text;strokeColor=none;align=center;fillColor=none;html=1;verticalAlign=middle;whiteSpace=wrap;rounded=0;" parent="WIyWlLk6GJQsqaUBKTNV-1" vertex="1">
          <mxGeometry x="227.5" y="290" width="60" height="30" as="geometry" />
        </mxCell>
        <mxCell id="kLbaEMiht5vseZuIg8E6-55" value="" style="edgeStyle=none;orthogonalLoop=1;jettySize=auto;html=1;rounded=0;" parent="WIyWlLk6GJQsqaUBKTNV-1" edge="1">
          <mxGeometry width="80" relative="1" as="geometry">
            <mxPoint x="154.41" y="350" as="sourcePoint" />
            <mxPoint x="154" y="390" as="targetPoint" />
            <Array as="points" />
          </mxGeometry>
        </mxCell>
        <mxCell id="kLbaEMiht5vseZuIg8E6-56" value="withdraw Successfull&amp;nbsp;" style="rounded=1;whiteSpace=wrap;html=1;" parent="WIyWlLk6GJQsqaUBKTNV-1" vertex="1">
          <mxGeometry x="95" y="400" width="120" height="30" as="geometry" />
        </mxCell>
        <mxCell id="kLbaEMiht5vseZuIg8E6-57" value="Not Allowed" style="rounded=1;whiteSpace=wrap;html=1;" parent="WIyWlLk6GJQsqaUBKTNV-1" vertex="1">
          <mxGeometry x="275" y="312.5" width="120" height="25" as="geometry" />
        </mxCell>
        <mxCell id="kLbaEMiht5vseZuIg8E6-58" value="Not Enough Money&amp;nbsp;" style="rounded=1;whiteSpace=wrap;html=1;" parent="WIyWlLk6GJQsqaUBKTNV-1" vertex="1">
          <mxGeometry x="335" y="195" width="120" height="20" as="geometry" />
        </mxCell>
        <mxCell id="kLbaEMiht5vseZuIg8E6-59" value="" style="edgeStyle=none;orthogonalLoop=1;jettySize=auto;html=1;rounded=0;exitX=0;exitY=0.5;exitDx=0;exitDy=0;" parent="WIyWlLk6GJQsqaUBKTNV-1" source="kLbaEMiht5vseZuIg8E6-38" target="kLbaEMiht5vseZuIg8E6-60" edge="1">
          <mxGeometry width="80" relative="1" as="geometry">
            <mxPoint x="165" y="560" as="sourcePoint" />
            <mxPoint x="105" y="540" as="targetPoint" />
            <Array as="points">
              <mxPoint x="30" y="440" />
            </Array>
          </mxGeometry>
        </mxCell>
        <mxCell id="kLbaEMiht5vseZuIg8E6-70" value="" style="edgeStyle=orthogonalEdgeStyle;rounded=0;orthogonalLoop=1;jettySize=auto;html=1;" parent="WIyWlLk6GJQsqaUBKTNV-1" source="kLbaEMiht5vseZuIg8E6-60" target="kLbaEMiht5vseZuIg8E6-69" edge="1">
          <mxGeometry relative="1" as="geometry" />
        </mxCell>
        <mxCell id="kLbaEMiht5vseZuIg8E6-60" value="Want to check balance ?" style="rhombus;whiteSpace=wrap;html=1;" parent="WIyWlLk6GJQsqaUBKTNV-1" vertex="1">
          <mxGeometry x="265" y="400" width="120" height="80" as="geometry" />
        </mxCell>
        <mxCell id="kLbaEMiht5vseZuIg8E6-62" value="Yes" style="text;strokeColor=none;align=center;fillColor=none;html=1;verticalAlign=middle;whiteSpace=wrap;rounded=0;" parent="WIyWlLk6GJQsqaUBKTNV-1" vertex="1">
          <mxGeometry x="345" y="380" width="40" height="30" as="geometry" />
        </mxCell>
        <mxCell id="kLbaEMiht5vseZuIg8E6-63" value="No" style="text;strokeColor=none;align=center;fillColor=none;html=1;verticalAlign=middle;whiteSpace=wrap;rounded=0;" parent="WIyWlLk6GJQsqaUBKTNV-1" vertex="1">
          <mxGeometry x="385" y="410" width="60" height="30" as="geometry" />
        </mxCell>
        <mxCell id="kLbaEMiht5vseZuIg8E6-64" value="" style="edgeStyle=none;orthogonalLoop=1;jettySize=auto;html=1;rounded=0;" parent="WIyWlLk6GJQsqaUBKTNV-1" target="kLbaEMiht5vseZuIg8E6-68" edge="1">
          <mxGeometry width="80" relative="1" as="geometry">
            <mxPoint x="385" y="439.42999999999995" as="sourcePoint" />
            <mxPoint x="465" y="439.42999999999995" as="targetPoint" />
            <Array as="points" />
          </mxGeometry>
        </mxCell>
        <mxCell id="kLbaEMiht5vseZuIg8E6-68" value="return&amp;nbsp;" style="rounded=1;whiteSpace=wrap;html=1;" parent="WIyWlLk6GJQsqaUBKTNV-1" vertex="1">
          <mxGeometry x="429" y="425" width="66" height="30" as="geometry" />
        </mxCell>
        <mxCell id="kLbaEMiht5vseZuIg8E6-69" value="Print(Balance)" style="rounded=1;whiteSpace=wrap;html=1;" parent="WIyWlLk6GJQsqaUBKTNV-1" vertex="1">
          <mxGeometry x="265" y="360" width="120" height="25" as="geometry" />
        </mxCell>
        <mxCell id="kLbaEMiht5vseZuIg8E6-71" value="End" style="ellipse;whiteSpace=wrap;html=1;" parent="WIyWlLk6GJQsqaUBKTNV-1" vertex="1">
          <mxGeometry x="116.5" y="480" width="77" height="50" as="geometry" />
        </mxCell>
        <mxCell id="kLbaEMiht5vseZuIg8E6-73" value="c" style="edgeStyle=none;orthogonalLoop=1;jettySize=auto;html=1;rounded=0;entryX=0.5;entryY=0;entryDx=0;entryDy=0;exitX=0.5;exitY=1;exitDx=0;exitDy=0;" parent="WIyWlLk6GJQsqaUBKTNV-1" source="kLbaEMiht5vseZuIg8E6-56" target="kLbaEMiht5vseZuIg8E6-71" edge="1">
          <mxGeometry width="80" relative="1" as="geometry">
            <mxPoint x="147.5" y="439" as="sourcePoint" />
            <mxPoint x="227.5" y="439" as="targetPoint" />
            <Array as="points" />
          </mxGeometry>
        </mxCell>
        <mxCell id="kLbaEMiht5vseZuIg8E6-75" style="edgeStyle=orthogonalEdgeStyle;rounded=0;orthogonalLoop=1;jettySize=auto;html=1;" parent="WIyWlLk6GJQsqaUBKTNV-1" source="kLbaEMiht5vseZuIg8E6-60" edge="1">
          <mxGeometry relative="1" as="geometry">
            <mxPoint x="195" y="510" as="targetPoint" />
            <mxPoint x="325" y="480" as="sourcePoint" />
            <Array as="points">
              <mxPoint x="325" y="510" />
            </Array>
          </mxGeometry>
        </mxCell>
      </root>
    </mxGraphModel>
  </diagram>
</mxfile>
